<svg width="467" height="832" viewBox="0 0 467 832" fill="none" xmlns="http://www.w3.org/2000/svg">
<circle cx="28.5449" cy="28.5449" r="28.5449" transform="matrix(-1 0 0 1 407.613 394.983)" fill="#191919"/>
<circle cx="28.5449" cy="28.5449" r="28.5449" transform="matrix(-1 0 0 1 350.533 410.69)" fill="#191919"/>
<circle cx="28.5449" cy="28.5449" r="28.5449" transform="matrix(-1 0 0 1 370.163 467.778)" fill="#191919"/>
<circle cx="28.5449" cy="28.5449" r="28.5449" transform="matrix(-1 0 0 1 306.047 496.32)" fill="#191919"/>
<circle cx="28.5449" cy="28.5449" r="28.5449" transform="matrix(-1 0 0 1 248.955 423.531)" fill="#191919"/>
<circle cx="28.5449" cy="28.5449" r="28.5449" transform="matrix(-1 0 0 1 201.524 295.594)" fill="#191919"/>
<circle cx="28.5449" cy="28.5449" r="28.5449" transform="matrix(-1 0 0 1 330.806 0)" fill="#191919"/>
<circle cx="28.5449" cy="28.5449" r="28.5449" transform="matrix(-1 0 0 1 484.334 153.916)" fill="#191919"/>
<circle cx="28.5449" cy="28.5449" r="28.5449" transform="matrix(-1 0 0 1 379.073 153.916)" fill="#191919"/>
<circle cx="28.5449" cy="28.5449" r="28.5449" transform="matrix(-1 0 0 1 350.533 242.933)" fill="#191919"/>
<circle cx="28.5449" cy="28.5449" r="28.5449" transform="matrix(-1 0 0 1 315.695 309.35)" fill="#191919"/>
<circle cx="28.5449" cy="28.5449" r="28.5449" transform="matrix(-1 0 0 1 344.236 344.687)" fill="#191919"/>
<circle cx="28.5449" cy="28.5449" r="28.5449" transform="matrix(-1 0 0 1 393.391 344.687)" fill="#191919"/>
<circle cx="28.5449" cy="28.5449" r="28.5449" transform="matrix(-1 0 0 1 411.575 302.995)" fill="#191919"/>
<circle cx="28.5449" cy="28.5449" r="28.5449" transform="matrix(-1 0 0 1 455.794 219.772)" fill="#191919"/>
<circle cx="28.5449" cy="28.5449" r="28.5449" transform="matrix(-1 0 0 1 512.885 344.687)" fill="#191919"/>
<circle cx="28.5449" cy="28.5449" r="28.5449" transform="matrix(-1 0 0 1 495.964 295.594)" fill="#191919"/>
<circle cx="28.5449" cy="28.5449" r="28.5449" transform="matrix(-1 0 0 1 445.567 316.137)" fill="#191919"/>
<circle cx="28.5449" cy="28.5449" r="28.5449" transform="matrix(-1 0 0 1 479.515 357.183)" fill="#191919"/>
<circle cx="28.5449" cy="28.5449" r="28.5449" transform="matrix(-1 0 0 1 438.873 377.533)" fill="#191919"/>
<circle cx="28.5449" cy="28.5449" r="28.5449" transform="matrix(-1 0 0 1 475.874 406.084)" fill="#191919"/>
<circle cx="28.5449" cy="28.5449" r="28.5449" transform="matrix(-1 0 0 1 498.855 394.983)" fill="#191919"/>
<circle cx="28.5449" cy="28.5449" r="28.5449" transform="matrix(-1 0 0 1 436.164 423.531)" fill="#191919"/>
<circle cx="28.5449" cy="28.5449" r="28.5449" transform="matrix(-1 0 0 1 440.126 455.299)" fill="#191919"/>
<circle cx="28.5449" cy="28.5449" r="28.5449" transform="matrix(-1 0 0 1 490.063 442.813)" fill="#191919"/>
<circle cx="28.5449" cy="28.5449" r="28.5449" transform="matrix(-1 0 0 1 470.316 471.363)" fill="#191919"/>
<circle cx="28.5449" cy="28.5449" r="28.5449" transform="matrix(-1 0 0 1 461.512 496.32)" fill="#191919"/>
<circle cx="28.5449" cy="28.5449" r="28.5449" transform="matrix(-1 0 0 1 486.487 509.164)" fill="#191919"/>
<circle cx="28.5449" cy="28.5449" r="28.5449" transform="matrix(-1 0 0 1 518.603 474.813)" fill="#191919"/>
<circle cx="28.5449" cy="28.5449" r="28.5449" transform="matrix(-1 0 0 1 213.625 467.778)" fill="#191919"/>
<circle cx="28.5449" cy="28.5449" r="28.5449" transform="matrix(-1 0 0 1 57.09 467.778)" fill="#191919"/>
<circle cx="28.5449" cy="28.5449" r="28.5449" transform="matrix(-1 0 0 1 135.598 715.111)" fill="#191919"/>
<circle cx="28.5449" cy="28.5449" r="28.5449" transform="matrix(-1 0 0 1 258.615 615.653)" fill="#191919"/>
<circle cx="28.5449" cy="28.5449" r="28.5449" transform="matrix(-1 0 0 1 306.047 726.889)" fill="#191919"/>
<circle cx="28.5449" cy="28.5449" r="28.5449" transform="matrix(-1 0 0 1 398.703 596.027)" fill="#191919"/>
<circle cx="28.5449" cy="28.5449" r="28.5449" transform="matrix(-1 0 0 1 417.026 553.416)" fill="#191919"/>
<circle cx="28.5449" cy="28.5449" r="28.5449" transform="matrix(-1 0 0 1 398.703 503.356)" fill="#191919"/>
<circle cx="28.5449" cy="28.5449" r="28.5449" transform="matrix(-1 0 0 1 398.703 452.076)" fill="#191919"/>
<circle cx="28.5449" cy="28.5449" r="28.5449" transform="matrix(-1 0 0 1 417.026 480.619)" fill="#191919"/>
<circle cx="28.5449" cy="28.5449" r="28.5449" transform="matrix(-1 0 0 1 427.254 524.052)" fill="#191919"/>
<circle cx="28.5449" cy="28.5449" r="28.5449" transform="matrix(-1 0 0 1 436.164 688.693)" fill="#191919"/>
<circle cx="28.5449" cy="28.5449" r="28.5449" transform="matrix(-1 0 0 1 445.567 774.331)" fill="#191919"/>
<circle cx="28.5449" cy="28.5449" r="28.5449" transform="matrix(-1 0 0 1 484.334 560.443)" fill="#191919"/>
<circle cx="28.5449" cy="28.5449" r="28.5449" transform="matrix(-1 0 0 1 518.603 524.866)" fill="#191919"/>
</svg>
