<svg width="848" height="822" viewBox="0 0 848 822" fill="none" xmlns="http://www.w3.org/2000/svg">
<circle cx="28.2055" cy="28.2055" r="28.2055" transform="matrix(-1 0 0 1 402.767 390.287)" fill="white"/>
<circle cx="28.2055" cy="28.2055" r="28.2055" transform="matrix(-1 0 0 1 346.365 405.808)" fill="white"/>
<circle cx="28.2055" cy="28.2055" r="28.2055" transform="matrix(-1 0 0 1 365.762 462.216)" fill="white"/>
<circle cx="28.2055" cy="28.2055" r="28.2055" transform="matrix(-1 0 0 1 302.408 490.419)" fill="white"/>
<circle cx="28.2055" cy="28.2055" r="28.2055" transform="matrix(-1 0 0 1 245.996 418.496)" fill="white"/>
<circle cx="28.2055" cy="28.2055" r="28.2055" transform="matrix(-1 0 0 1 199.128 292.08)" fill="white"/>
<circle cx="28.2055" cy="28.2055" r="28.2055" transform="matrix(-1 0 0 1 148.568 188.957)" fill="white"/>
<circle cx="28.2055" cy="28.2055" r="28.2055" transform="matrix(-1 0 0 1 326.873 0)" fill="white"/>
<circle cx="28.2055" cy="28.2055" r="28.2055" transform="matrix(-1 0 0 1 568.903 40.5864)" fill="white"/>
<circle cx="28.2055" cy="28.2055" r="28.2055" transform="matrix(-1 0 0 1 643.41 147.432)" fill="white"/>
<circle cx="28.2055" cy="28.2055" r="28.2055" transform="matrix(-1 0 0 1 478.575 152.086)" fill="white"/>
<circle cx="28.2055" cy="28.2055" r="28.2055" transform="matrix(-1 0 0 1 374.566 152.086)" fill="white"/>
<circle cx="28.2055" cy="28.2055" r="28.2055" transform="matrix(-1 0 0 1 346.365 240.044)" fill="white"/>
<circle cx="28.2055" cy="28.2055" r="28.2055" transform="matrix(-1 0 0 1 311.942 305.672)" fill="white"/>
<circle cx="28.2055" cy="28.2055" r="28.2055" transform="matrix(-1 0 0 1 340.143 340.589)" fill="white"/>
<circle cx="28.2055" cy="28.2055" r="28.2055" transform="matrix(-1 0 0 1 388.714 340.589)" fill="white"/>
<circle cx="28.2055" cy="28.2055" r="28.2055" transform="matrix(-1 0 0 1 406.682 299.393)" fill="white"/>
<circle cx="28.2055" cy="28.2055" r="28.2055" transform="matrix(-1 0 0 1 450.375 217.16)" fill="white"/>
<circle cx="28.2055" cy="28.2055" r="28.2055" transform="matrix(-1 0 0 1 530.215 259.74)" fill="white"/>
<circle cx="28.2055" cy="28.2055" r="28.2055" transform="matrix(-1 0 0 1 554.384 263.875)" fill="white"/>
<circle cx="28.2055" cy="28.2055" r="28.2055" transform="matrix(-1 0 0 1 587.008 284.013)" fill="white"/>
<circle cx="28.2055" cy="28.2055" r="28.2055" transform="matrix(-1 0 0 1 546.469 348.493)" fill="white"/>
<circle cx="28.2055" cy="28.2055" r="28.2055" transform="matrix(-1 0 0 1 506.787 340.589)" fill="white"/>
<circle cx="28.2055" cy="28.2055" r="28.2055" transform="matrix(-1 0 0 1 490.067 292.08)" fill="white"/>
<circle cx="28.2055" cy="28.2055" r="28.2055" transform="matrix(-1 0 0 1 440.269 312.378)" fill="white"/>
<circle cx="28.2055" cy="28.2055" r="28.2055" transform="matrix(-1 0 0 1 473.813 352.937)" fill="white"/>
<circle cx="28.2055" cy="28.2055" r="28.2055" transform="matrix(-1 0 0 1 433.655 373.044)" fill="white"/>
<circle cx="28.2055" cy="28.2055" r="28.2055" transform="matrix(-1 0 0 1 470.216 401.256)" fill="white"/>
<circle cx="28.2055" cy="28.2055" r="28.2055" transform="matrix(-1 0 0 1 492.924 390.287)" fill="white"/>
<circle cx="28.2055" cy="28.2055" r="28.2055" transform="matrix(-1 0 0 1 540.649 381.141)" fill="white"/>
<circle cx="28.2055" cy="28.2055" r="28.2055" transform="matrix(-1 0 0 1 579.368 368.792)" fill="white"/>
<circle cx="28.2055" cy="28.2055" r="28.2055" transform="matrix(-1 0 0 1 591.453 401.256)" fill="white"/>
<circle cx="28.2055" cy="28.2055" r="28.2055" transform="matrix(-1 0 0 1 553.093 434.013)" fill="white"/>
<circle cx="28.2055" cy="28.2055" r="28.2055" transform="matrix(-1 0 0 1 549.337 482.905)" fill="white"/>
<circle cx="28.2055" cy="28.2055" r="28.2055" transform="matrix(-1 0 0 1 518.268 425.201)" fill="white"/>
<circle cx="28.2055" cy="28.2055" r="28.2055" transform="matrix(-1 0 0 1 430.978 418.496)" fill="white"/>
<circle cx="28.2055" cy="28.2055" r="28.2055" transform="matrix(-1 0 0 1 434.893 449.886)" fill="white"/>
<circle cx="28.2055" cy="28.2055" r="28.2055" transform="matrix(-1 0 0 1 484.237 437.548)" fill="white"/>
<circle cx="28.2055" cy="28.2055" r="28.2055" transform="matrix(-1 0 0 1 464.724 465.759)" fill="white"/>
<circle cx="28.2055" cy="28.2055" r="28.2055" transform="matrix(-1 0 0 1 456.025 490.419)" fill="white"/>
<circle cx="28.2055" cy="28.2055" r="28.2055" transform="matrix(-1 0 0 1 480.702 503.111)" fill="white"/>
<circle cx="28.2055" cy="28.2055" r="28.2055" transform="matrix(-1 0 0 1 512.438 469.168)" fill="white"/>
<circle cx="28.2055" cy="28.2055" r="28.2055" transform="matrix(-1 0 0 1 211.086 462.216)" fill="white"/>
<circle cx="28.2055" cy="28.2055" r="28.2055" transform="matrix(-1 0 0 1 56.4111 462.216)" fill="white"/>
<circle cx="28.2055" cy="28.2055" r="28.2055" transform="matrix(-1 0 0 1 133.986 706.609)" fill="white"/>
<circle cx="28.2055" cy="28.2055" r="28.2055" transform="matrix(-1 0 0 1 255.541 608.333)" fill="white"/>
<circle cx="28.2055" cy="28.2055" r="28.2055" transform="matrix(-1 0 0 1 302.408 718.247)" fill="white"/>
<circle cx="28.2055" cy="28.2055" r="28.2055" transform="matrix(-1 0 0 1 393.962 588.94)" fill="white"/>
<circle cx="28.2055" cy="28.2055" r="28.2055" transform="matrix(-1 0 0 1 412.068 546.836)" fill="white"/>
<circle cx="28.2055" cy="28.2055" r="28.2055" transform="matrix(-1 0 0 1 393.962 497.371)" fill="white"/>
<circle cx="28.2055" cy="28.2055" r="28.2055" transform="matrix(-1 0 0 1 393.962 446.701)" fill="white"/>
<circle cx="28.2055" cy="28.2055" r="28.2055" transform="matrix(-1 0 0 1 412.068 474.905)" fill="white"/>
<circle cx="28.2055" cy="28.2055" r="28.2055" transform="matrix(-1 0 0 1 422.174 517.821)" fill="white"/>
<circle cx="28.2055" cy="28.2055" r="28.2055" transform="matrix(-1 0 0 1 430.978 680.505)" fill="white"/>
<circle cx="28.2055" cy="28.2055" r="28.2055" transform="matrix(-1 0 0 1 440.269 765.125)" fill="white"/>
<circle cx="28.2055" cy="28.2055" r="28.2055" transform="matrix(-1 0 0 1 568.903 734.813)" fill="white"/>
<circle cx="28.2055" cy="28.2055" r="28.2055" transform="matrix(-1 0 0 1 721.483 603.245)" fill="white"/>
<circle cx="28.2055" cy="28.2055" r="28.2055" transform="matrix(-1 0 0 1 625.304 624.096)" fill="white"/>
<circle cx="28.2055" cy="28.2055" r="28.2055" transform="matrix(-1 0 0 1 524.893 617.147)" fill="white"/>
<circle cx="28.2055" cy="28.2055" r="28.2055" transform="matrix(-1 0 0 1 478.575 553.78)" fill="white"/>
<circle cx="28.2055" cy="28.2055" r="28.2055" transform="matrix(-1 0 0 1 512.438 518.626)" fill="white"/>
<circle cx="28.2055" cy="28.2055" r="28.2055" transform="matrix(-1 0 0 1 563.252 539.316)" fill="white"/>
<circle cx="28.2055" cy="28.2055" r="28.2055" transform="matrix(-1 0 0 1 639.547 497.371)" fill="white"/>
<circle cx="28.2055" cy="28.2055" r="28.2055" transform="matrix(-1 0 0 1 625.304 461.406)" fill="white"/>
<circle cx="28.2055" cy="28.2055" r="28.2055" transform="matrix(-1 0 0 1 721.483 497.371)" fill="white"/>
<circle cx="28.2055" cy="28.2055" r="28.2055" transform="matrix(-1 0 0 1 847.799 405.808)" fill="white"/>
<circle cx="28.2055" cy="28.2055" r="28.2055" transform="matrix(-1 0 0 1 777.885 324.341)" fill="white"/>
<circle cx="28.2055" cy="28.2055" r="28.2055" transform="matrix(-1 0 0 1 713.071 211.841)" fill="white"/>
<circle cx="28.2055" cy="28.2055" r="28.2055" transform="matrix(-1 0 0 1 684.87 333.877)" fill="white"/>
<circle cx="28.2055" cy="28.2055" r="28.2055" transform="matrix(-1 0 0 1 639.547 368.792)" fill="white"/>
</svg>
