<svg width="553" height="822" viewBox="0 0 553 822" fill="none" xmlns="http://www.w3.org/2000/svg">
<circle cx="28.2055" cy="28.2055" r="28.2055" transform="matrix(-1 0 0 1 107.767 390.287)" fill="white"/>
<circle cx="28.2055" cy="28.2055" r="28.2055" transform="matrix(-1 0 0 1 51.3651 405.808)" fill="white"/>
<circle cx="28.2055" cy="28.2055" r="28.2055" transform="matrix(-1 0 0 1 70.7617 462.216)" fill="white"/>
<circle cx="28.2055" cy="28.2055" r="28.2055" transform="matrix(-1 0 0 1 7.40796 490.419)" fill="white"/>
<circle cx="28.2055" cy="28.2055" r="28.2055" transform="matrix(-1 0 0 1 31.8733 0)" fill="white"/>
<circle cx="28.2055" cy="28.2055" r="28.2055" transform="matrix(-1 0 0 1 273.903 40.5864)" fill="white"/>
<circle cx="28.2055" cy="28.2055" r="28.2055" transform="matrix(-1 0 0 1 348.41 147.432)" fill="white"/>
<circle cx="28.2055" cy="28.2055" r="28.2055" transform="matrix(-1 0 0 1 183.575 152.086)" fill="white"/>
<circle cx="28.2055" cy="28.2055" r="28.2055" transform="matrix(-1 0 0 1 79.5658 152.086)" fill="white"/>
<circle cx="28.2055" cy="28.2055" r="28.2055" transform="matrix(-1 0 0 1 51.3651 240.044)" fill="white"/>
<circle cx="28.2055" cy="28.2055" r="28.2055" transform="matrix(-1 0 0 1 16.9422 305.672)" fill="white"/>
<circle cx="28.2055" cy="28.2055" r="28.2055" transform="matrix(-1 0 0 1 45.1429 340.589)" fill="white"/>
<circle cx="28.2055" cy="28.2055" r="28.2055" transform="matrix(-1 0 0 1 93.7139 340.589)" fill="white"/>
<circle cx="28.2055" cy="28.2055" r="28.2055" transform="matrix(-1 0 0 1 111.682 299.393)" fill="white"/>
<circle cx="28.2055" cy="28.2055" r="28.2055" transform="matrix(-1 0 0 1 155.375 217.16)" fill="white"/>
<circle cx="28.2055" cy="28.2055" r="28.2055" transform="matrix(-1 0 0 1 235.215 259.74)" fill="white"/>
<circle cx="28.2055" cy="28.2055" r="28.2055" transform="matrix(-1 0 0 1 259.384 263.875)" fill="white"/>
<circle cx="28.2055" cy="28.2055" r="28.2055" transform="matrix(-1 0 0 1 292.008 284.013)" fill="white"/>
<circle cx="28.2055" cy="28.2055" r="28.2055" transform="matrix(-1 0 0 1 251.469 348.493)" fill="white"/>
<circle cx="28.2055" cy="28.2055" r="28.2055" transform="matrix(-1 0 0 1 211.787 340.589)" fill="white"/>
<circle cx="28.2055" cy="28.2055" r="28.2055" transform="matrix(-1 0 0 1 195.067 292.08)" fill="white"/>
<circle cx="28.2055" cy="28.2055" r="28.2055" transform="matrix(-1 0 0 1 145.269 312.378)" fill="white"/>
<circle cx="28.2055" cy="28.2055" r="28.2055" transform="matrix(-1 0 0 1 178.814 352.936)" fill="white"/>
<circle cx="28.2055" cy="28.2055" r="28.2055" transform="matrix(-1 0 0 1 138.655 373.044)" fill="white"/>
<circle cx="28.2055" cy="28.2055" r="28.2055" transform="matrix(-1 0 0 1 175.216 401.256)" fill="white"/>
<circle cx="28.2055" cy="28.2055" r="28.2055" transform="matrix(-1 0 0 1 197.924 390.287)" fill="white"/>
<circle cx="28.2055" cy="28.2055" r="28.2055" transform="matrix(-1 0 0 1 245.649 381.141)" fill="white"/>
<circle cx="28.2055" cy="28.2055" r="28.2055" transform="matrix(-1 0 0 1 284.368 368.792)" fill="white"/>
<circle cx="28.2055" cy="28.2055" r="28.2055" transform="matrix(-1 0 0 1 296.453 401.256)" fill="white"/>
<circle cx="28.2055" cy="28.2055" r="28.2055" transform="matrix(-1 0 0 1 258.093 434.013)" fill="white"/>
<circle cx="28.2055" cy="28.2055" r="28.2055" transform="matrix(-1 0 0 1 254.337 482.905)" fill="white"/>
<circle cx="28.2055" cy="28.2055" r="28.2055" transform="matrix(-1 0 0 1 223.268 425.201)" fill="white"/>
<circle cx="28.2055" cy="28.2055" r="28.2055" transform="matrix(-1 0 0 1 135.978 418.496)" fill="white"/>
<circle cx="28.2055" cy="28.2055" r="28.2055" transform="matrix(-1 0 0 1 139.893 449.886)" fill="white"/>
<circle cx="28.2055" cy="28.2055" r="28.2055" transform="matrix(-1 0 0 1 189.237 437.548)" fill="white"/>
<circle cx="28.2055" cy="28.2055" r="28.2055" transform="matrix(-1 0 0 1 169.724 465.759)" fill="white"/>
<circle cx="28.2055" cy="28.2055" r="28.2055" transform="matrix(-1 0 0 1 161.025 490.419)" fill="white"/>
<circle cx="28.2055" cy="28.2055" r="28.2055" transform="matrix(-1 0 0 1 185.702 503.111)" fill="white"/>
<circle cx="28.2055" cy="28.2055" r="28.2055" transform="matrix(-1 0 0 1 217.438 469.168)" fill="white"/>
<circle cx="28.2055" cy="28.2055" r="28.2055" transform="matrix(-1 0 0 1 7.40796 718.247)" fill="white"/>
<circle cx="28.2055" cy="28.2055" r="28.2055" transform="matrix(-1 0 0 1 98.9625 588.94)" fill="white"/>
<circle cx="28.2055" cy="28.2055" r="28.2055" transform="matrix(-1 0 0 1 117.068 546.836)" fill="white"/>
<circle cx="28.2055" cy="28.2055" r="28.2055" transform="matrix(-1 0 0 1 98.9625 497.371)" fill="white"/>
<circle cx="28.2055" cy="28.2055" r="28.2055" transform="matrix(-1 0 0 1 98.9625 446.701)" fill="white"/>
<circle cx="28.2055" cy="28.2055" r="28.2055" transform="matrix(-1 0 0 1 117.068 474.905)" fill="white"/>
<circle cx="28.2055" cy="28.2055" r="28.2055" transform="matrix(-1 0 0 1 127.174 517.822)" fill="white"/>
<circle cx="28.2055" cy="28.2055" r="28.2055" transform="matrix(-1 0 0 1 135.978 680.506)" fill="white"/>
<circle cx="28.2055" cy="28.2055" r="28.2055" transform="matrix(-1 0 0 1 145.269 765.125)" fill="white"/>
<circle cx="28.2055" cy="28.2055" r="28.2055" transform="matrix(-1 0 0 1 273.903 734.813)" fill="white"/>
<circle cx="28.2055" cy="28.2055" r="28.2055" transform="matrix(-1 0 0 1 426.483 603.245)" fill="white"/>
<circle cx="28.2055" cy="28.2055" r="28.2055" transform="matrix(-1 0 0 1 330.304 624.096)" fill="white"/>
<circle cx="28.2055" cy="28.2055" r="28.2055" transform="matrix(-1 0 0 1 229.892 617.147)" fill="white"/>
<circle cx="28.2055" cy="28.2055" r="28.2055" transform="matrix(-1 0 0 1 183.575 553.78)" fill="white"/>
<circle cx="28.2055" cy="28.2055" r="28.2055" transform="matrix(-1 0 0 1 217.438 518.626)" fill="white"/>
<circle cx="28.2055" cy="28.2055" r="28.2055" transform="matrix(-1 0 0 1 268.252 539.316)" fill="white"/>
<circle cx="28.2055" cy="28.2055" r="28.2055" transform="matrix(-1 0 0 1 344.547 497.371)" fill="white"/>
<circle cx="28.2055" cy="28.2055" r="28.2055" transform="matrix(-1 0 0 1 330.304 461.406)" fill="white"/>
<circle cx="28.2055" cy="28.2055" r="28.2055" transform="matrix(-1 0 0 1 426.483 497.371)" fill="white"/>
<circle cx="28.2055" cy="28.2055" r="28.2055" transform="matrix(-1 0 0 1 552.799 405.808)" fill="white"/>
<circle cx="28.2055" cy="28.2055" r="28.2055" transform="matrix(-1 0 0 1 482.885 324.341)" fill="white"/>
<circle cx="28.2055" cy="28.2055" r="28.2055" transform="matrix(-1 0 0 1 418.071 211.841)" fill="white"/>
<circle cx="28.2055" cy="28.2055" r="28.2055" transform="matrix(-1 0 0 1 389.87 333.877)" fill="white"/>
<circle cx="28.2055" cy="28.2055" r="28.2055" transform="matrix(-1 0 0 1 344.547 368.792)" fill="white"/>
</svg>
